<svg width="137" height="65" viewBox="0 0 137 65" fill="none" xmlns="http://www.w3.org/2000/svg">
<g clip-path="url(#clip0_3251_1548)">
<path d="M114.109 0C115.581 11.0056 125.767 19.9254 136.87 19.9332C125.769 19.941 117.957 28.8608 119.414 39.8664C117.942 28.8608 107.756 19.941 96.6528 19.9332C107.754 19.9254 115.566 11.0056 114.109 0Z" fill="url(#paint0_linear_3251_1548)"/>
<path d="M15.0161 64.5724C7.94572 64.5724 2.92914 60.1955 2.92914 53.4618V53.3945C2.92914 46.7282 8.08039 42.8226 17.3055 42.2839L26.2613 41.7453V38.6814C26.2613 35.483 24.0728 33.6649 20.0326 33.6649C16.4975 33.6649 14.2417 34.9106 13.4673 37.099L13.4 37.2337H4.30954L4.34321 36.9307C5.11758 30.4327 11.2452 26.1232 20.5713 26.1232C30.4025 26.1232 35.9577 30.7694 35.9577 38.6814V64H26.2613V59.0844H25.6552C23.7698 62.5186 19.8643 64.5724 15.0161 64.5724ZM12.5246 52.8558C12.5246 55.6839 14.9151 57.401 18.3156 57.401C22.8608 57.401 26.2613 54.4045 26.2613 50.499V47.7719L18.7869 48.2432C14.5784 48.5126 12.5246 50.095 12.5246 52.7885V52.8558ZM57.0893 64.7744C45.5074 64.7744 38.9421 57.7377 38.9421 45.4151V45.3478C38.9421 33.1598 45.4737 26.1232 57.0893 26.1232C66.9205 26.1232 72.7451 31.4764 73.6204 39.7588V39.8598H64.4627L64.429 39.7925C63.7893 36.19 61.3315 33.8332 57.123 33.8332C51.8371 33.8332 48.9416 37.9407 48.9416 45.3478V45.4151C48.9416 52.9231 51.8707 57.0643 57.123 57.0643C61.1632 57.0643 63.5536 55.1452 64.429 51.4417L64.4963 51.3071H73.5868L73.5531 51.5091C72.5431 59.5895 66.7521 64.7744 57.0893 64.7744ZM92.7656 64.7744C81.4867 64.7744 74.652 57.401 74.652 45.5161V45.4824C74.652 33.6985 81.554 26.1232 92.3616 26.1232C103.169 26.1232 109.903 33.5302 109.903 44.7417V47.8055H84.3822C84.4832 53.8995 87.749 57.4347 92.9676 57.4347C97.2771 57.4347 99.6676 55.1452 100.341 53.7312L100.442 53.5292H109.6L109.532 53.8658C108.388 58.5121 103.607 64.7744 92.7656 64.7744ZM92.5299 33.4965C88.254 33.4965 85.0892 36.392 84.4832 41.6442H100.476C99.8696 36.2573 96.8058 33.4965 92.5299 33.4965Z" fill="url(#paint1_linear_3251_1548)"/>
</g>
<defs>
<linearGradient id="paint0_linear_3251_1548" x1="100.316" y1="18.0462" x2="130.024" y2="49.0688" gradientUnits="userSpaceOnUse">
<stop stop-color="white"/>
<stop offset="0.537398" stop-color="#B9B9B9"/>
</linearGradient>
<linearGradient id="paint1_linear_3251_1548" x1="36.5" y1="-21" x2="110.026" y2="100.267" gradientUnits="userSpaceOnUse">
<stop offset="0.430428" stop-color="white"/>
<stop offset="0.801913" stop-color="#989898"/>
</linearGradient>
<clipPath id="clip0_3251_1548">
<rect width="137" height="65" fill="white"/>
</clipPath>
</defs>
</svg>
