<svg width="278" height="50" viewBox="0 0 278 50" fill="none" xmlns="http://www.w3.org/2000/svg">
<g clip-path="url(#clip0_4082_903)">
<path d="M70.9093 0.960938C71.8612 8.07792 78.4482 13.8461 85.6282 13.8511C78.4495 13.8562 73.3977 19.6243 74.3399 26.7413C73.388 19.6243 66.8011 13.8562 59.6211 13.8511C66.7998 13.8461 71.8515 8.07792 70.9093 0.960938Z" fill="url(#paint0_linear_4082_903)"/>
<path d="M10.4393 42.0638C5.93243 42.0638 2.60128 39.3205 2.60128 35.0313V34.9878C2.60128 30.764 5.78002 28.3037 11.419 27.9554L17.8201 27.5852V25.4951C17.8201 22.9042 16.1872 21.4672 12.9866 21.4672C10.374 21.4672 8.65396 22.4252 8.08788 24.1017L8.06611 24.1888H3.51571L3.53748 24.0364C4.10356 20.1609 7.82662 17.57 13.2044 17.57C19.1482 17.57 22.5011 20.531 22.5011 25.4951V41.6719H17.8201V38.319H17.4499C16.0565 40.7139 13.5745 42.0638 10.4393 42.0638ZM7.30408 34.8354C7.30408 37.0126 9.15472 38.2972 11.7021 38.2972C15.2292 38.2972 17.8201 35.9893 17.8201 32.9412V30.9164L12.0504 31.2865C8.78459 31.4825 7.30408 32.6582 7.30408 34.7918V34.8354ZM35.9921 42.1291C29.0903 42.1291 24.8664 37.4263 24.8664 29.7842V29.7407C24.8664 22.251 29.0685 17.57 35.9703 17.57C41.9141 17.57 45.463 20.9229 46.1161 25.5169V25.6257L41.5875 25.6475L41.5657 25.5822C41.0432 23.2526 39.1273 21.5108 35.9921 21.5108C32.0513 21.5108 29.6781 24.646 29.6781 29.7407V29.7842C29.6781 35.0096 32.0948 38.1883 35.9921 38.1883C38.9531 38.1883 40.7819 36.8384 41.544 34.2911L41.5875 34.1822H46.1161L46.0726 34.3782C45.2235 38.9721 41.8488 42.1291 35.9921 42.1291ZM58.279 42.1291C51.3554 42.1291 47.1751 37.4045 47.1751 29.9149V29.8931C47.1751 22.5123 51.4425 17.57 58.0395 17.57C64.6365 17.57 68.6861 22.3381 68.6861 29.4359V31.0906H51.9215C52.0086 35.6192 54.4906 38.2536 58.3879 38.2536C61.4142 38.2536 63.2213 36.7513 63.7874 35.5321L63.8745 35.3579L68.4249 35.3362L68.3813 35.5321C67.5975 38.6455 64.3317 42.1291 58.279 42.1291ZM58.0613 21.4455C54.839 21.4455 52.4005 23.6445 51.9868 27.7159H64.0051C63.635 23.4921 61.2618 21.4455 58.0613 21.4455Z" fill="url(#paint1_linear_4082_903)"/>
</g>
<path d="M92.5672 41.7109V10.6249H103.791C113.011 10.6249 118.418 16.3121 118.418 26.071V26.1141C118.418 35.9806 113.054 41.7109 103.791 41.7109H92.5672ZM97.3927 37.5532H103.252C109.758 37.5532 113.507 33.3955 113.507 26.1787V26.1356C113.507 18.9834 109.694 14.7826 103.252 14.7826H97.3927V37.5532ZM130.943 42.1633C124.093 42.1633 119.957 37.4886 119.957 30.0779V30.0564C119.957 22.7534 124.179 17.8632 130.706 17.8632C137.234 17.8632 141.241 22.5811 141.241 29.604V31.2412H124.653C124.739 35.7221 127.195 38.3287 131.051 38.3287C134.045 38.3287 135.833 36.8423 136.394 35.6359L136.48 35.4636L140.982 35.442L140.939 35.6359C140.164 38.7165 136.932 42.1633 130.943 42.1633ZM130.728 21.6978C127.54 21.6978 125.127 23.8736 124.717 27.9021H136.609C136.243 23.7228 133.895 21.6978 130.728 21.6978ZM149.414 41.7109L140.948 18.3156H145.903L151.741 36.9716H152.107L157.923 18.3156H162.835L154.39 41.7109H149.414ZM173.141 42.1633C166.29 42.1633 162.154 37.4886 162.154 30.0779V30.0564C162.154 22.7534 166.377 17.8632 172.904 17.8632C179.431 17.8632 183.438 22.5811 183.438 29.604V31.2412H166.851C166.937 35.7221 169.393 38.3287 173.249 38.3287C176.243 38.3287 178.031 36.8423 178.591 35.6359L178.678 35.4636L183.18 35.442L183.137 35.6359C182.361 38.7165 179.13 42.1633 173.141 42.1633ZM172.926 21.6978C169.737 21.6978 167.325 23.8736 166.915 27.9021H178.807C178.441 23.7228 176.092 21.6978 172.926 21.6978ZM185.903 41.7109V9.13844H190.578V41.7109H185.903ZM204.137 42.1633C197.265 42.1633 193.064 37.5747 193.064 30.0348V29.9917C193.064 22.4733 197.286 17.8632 204.137 17.8632C210.966 17.8632 215.188 22.4518 215.188 29.9917V30.0348C215.188 37.5747 210.987 42.1633 204.137 42.1633ZM204.137 38.2641C208.144 38.2641 210.427 35.2051 210.427 30.0348V29.9917C210.427 24.8 208.144 21.7624 204.137 21.7624C200.108 21.7624 197.846 24.8 197.846 29.9917V30.0348C197.846 35.2266 200.108 38.2641 204.137 38.2641ZM217.459 49.5094V18.3156H222.133V21.9994H222.478C223.835 19.4358 226.399 17.9063 229.673 17.9063C235.576 17.9063 239.367 22.6241 239.367 29.9917V30.0348C239.367 37.4455 235.619 42.0987 229.673 42.0987C226.463 42.0987 223.728 40.5261 222.478 38.0056H222.133V49.5094H217.459ZM228.359 38.1133C232.258 38.1133 234.607 35.0543 234.607 30.0348V29.9917C234.607 24.9508 232.258 21.9132 228.359 21.9132C224.46 21.9132 222.047 24.9938 222.047 29.9917V30.0348C222.047 35.0327 224.46 38.1133 228.359 38.1133ZM251.505 42.1633C244.654 42.1633 240.518 37.4886 240.518 30.0779V30.0564C240.518 22.7534 244.74 17.8632 251.268 17.8632C257.795 17.8632 261.802 22.5811 261.802 29.604V31.2412H245.214C245.3 35.7221 247.756 38.3287 251.612 38.3287C254.607 38.3287 256.395 36.8423 256.955 35.6359L257.041 35.4636L261.543 35.442L261.5 35.6359C260.725 38.7165 257.493 42.1633 251.505 42.1633ZM251.289 21.6978C248.101 21.6978 245.688 23.8736 245.279 27.9021H257.17C256.804 23.7228 254.456 21.6978 251.289 21.6978ZM264.051 41.7109V18.3156H268.726V21.8486H269.07C269.911 19.3712 272.086 17.9063 275.21 17.9063C275.964 17.9063 276.783 18.014 277.257 18.1217V22.4303C276.417 22.2579 275.619 22.1502 274.736 22.1502C271.16 22.1502 268.726 24.3476 268.726 27.7298V41.7109H264.051Z" fill="url(#paint2_linear_4082_903)"/>
<defs>
<linearGradient id="paint0_linear_4082_903" x1="61.9898" y1="12.6309" x2="81.2011" y2="32.6922" gradientUnits="userSpaceOnUse">
<stop stop-color="white"/>
<stop offset="0.537398" stop-color="white" stop-opacity="0.65"/>
</linearGradient>
<linearGradient id="paint1_linear_4082_903" x1="23.2871" y1="-12.1036" x2="70.1379" y2="63.9648" gradientUnits="userSpaceOnUse">
<stop offset="0.430428" stop-color="white"/>
<stop offset="0.801913" stop-color="white" stop-opacity="0.65"/>
</linearGradient>
<linearGradient id="paint2_linear_4082_903" x1="88.668" y1="26.2109" x2="278.668" y2="26.2109" gradientUnits="userSpaceOnUse">
<stop stop-color="white"/>
<stop offset="1" stop-color="white" stop-opacity="0.65"/>
</linearGradient>
<clipPath id="clip0_4082_903">
<rect width="88.5936" height="42.0335" fill="white" transform="translate(0.554688 0.960938)"/>
</clipPath>
</defs>
</svg>
