<svg width="192" height="36" viewBox="0 0 192 36" fill="none" xmlns="http://www.w3.org/2000/svg">
<g clip-path="url(#clip0_4082_877)">
<path d="M48.7041 0.899902C49.3631 5.82704 53.9233 9.82038 58.8941 9.82387C53.9242 9.82737 50.4268 13.8207 51.0791 18.7478C50.4201 13.8207 45.8599 9.82737 40.8892 9.82387C45.859 9.82038 49.3564 5.82704 48.7041 0.899902Z" fill="url(#paint0_linear_4082_877)"/>
<path d="M6.84318 29.887C3.72305 29.887 1.41687 27.9878 1.41687 25.0184V24.9883C1.41687 22.0641 3.61754 20.3608 7.52147 20.1197L11.953 19.8634V18.4164C11.953 16.6227 10.8225 15.6279 8.60673 15.6279C6.79796 15.6279 5.60719 16.2911 5.21529 17.4517L5.20022 17.512H2.04994L2.06501 17.4065C2.45691 14.7235 5.03441 12.9298 8.75746 12.9298C12.8724 12.9298 15.1937 14.9798 15.1937 18.4164V29.6157H11.953V27.2945H11.6967C10.732 28.9525 9.01371 29.887 6.84318 29.887ZM4.67266 24.8828C4.67266 26.3901 5.95387 27.2794 7.71742 27.2794C10.1593 27.2794 11.953 25.6816 11.953 23.5714V22.1696L7.95859 22.4259C5.69763 22.5615 4.67266 23.3755 4.67266 24.8526V24.8828ZM24.5336 29.9323C19.7554 29.9323 16.8312 26.6765 16.8312 21.3858V21.3557C16.8312 16.1705 19.7403 12.9298 24.5185 12.9298C28.6334 12.9298 31.0904 15.2511 31.5425 18.4315V18.5069L28.4073 18.5219L28.3923 18.4767C28.0305 16.8639 26.7041 15.658 24.5336 15.658C21.8053 15.658 20.1624 17.8286 20.1624 21.3557V21.3858C20.1624 25.0034 21.8355 27.204 24.5336 27.204C26.5835 27.204 27.8496 26.2695 28.3772 24.5059L28.4073 24.4306H31.5425L31.5124 24.5662C30.9246 27.7467 28.5882 29.9323 24.5336 29.9323ZM39.963 29.9323C35.1697 29.9323 32.2757 26.6614 32.2757 21.4763V21.4612C32.2757 16.3514 35.23 12.9298 39.7972 12.9298C44.3643 12.9298 47.1679 16.2308 47.1679 21.1446V22.2902H35.5616C35.6219 25.4254 37.3403 27.2492 40.0383 27.2492C42.1335 27.2492 43.3846 26.2092 43.7765 25.3651L43.8368 25.2445L46.987 25.2295L46.9569 25.3651C46.4143 27.5206 44.1533 29.9323 39.963 29.9323ZM39.8122 15.6128C37.5814 15.6128 35.8932 17.1352 35.6069 19.9539H43.9272C43.671 17.0297 42.028 15.6128 39.8122 15.6128Z" fill="url(#paint1_linear_4082_877)"/>
</g>
<path d="M63.6995 29.647V8.12586H71.4697C77.853 8.12586 81.5964 12.0632 81.5964 18.8193V18.8491C81.5964 25.6798 77.8828 29.647 71.4697 29.647H63.6995ZM67.0402 26.7685H71.0969C75.601 26.7685 78.196 23.8901 78.196 18.8939V18.864C78.196 13.9125 75.5562 11.0043 71.0969 11.0043H67.0402V26.7685ZM90.2675 29.9602C85.5248 29.9602 82.6613 26.7238 82.6613 21.5933V21.5784C82.6613 16.5225 85.5845 13.137 90.1035 13.137C94.6225 13.137 97.3965 16.4032 97.3965 21.2652V22.3987H85.9126C85.9722 25.5008 87.6725 27.3055 90.3421 27.3055C92.4152 27.3055 93.653 26.2764 94.0408 25.4412L94.1005 25.3219L97.2175 25.307L97.1877 25.4412C96.6508 27.5739 94.4137 29.9602 90.2675 29.9602ZM90.1184 15.7917C87.9111 15.7917 86.2407 17.2981 85.9573 20.087H94.1899C93.9364 17.1937 92.3108 15.7917 90.1184 15.7917ZM103.055 29.647L97.1937 13.4502H100.624L104.666 26.3659H104.919L108.946 13.4502H112.346L106.5 29.647H103.055ZM119.481 29.9602C114.739 29.9602 111.875 26.7238 111.875 21.5933V21.5784C111.875 16.5225 114.798 13.137 119.317 13.137C123.836 13.137 126.61 16.4032 126.61 21.2652V22.3987H115.126C115.186 25.5008 116.886 27.3055 119.556 27.3055C121.629 27.3055 122.867 26.2764 123.255 25.4412L123.314 25.3219L126.431 25.307L126.402 25.4412C125.865 27.5739 123.627 29.9602 119.481 29.9602ZM119.332 15.7917C117.125 15.7917 115.455 17.2981 115.171 20.087H123.404C123.15 17.1937 121.525 15.7917 119.332 15.7917ZM128.316 29.647V7.09678H131.553V29.647H128.316ZM140.94 29.9602C136.182 29.9602 133.274 26.7835 133.274 21.5635V21.5337C133.274 16.3286 136.197 13.137 140.94 13.137C145.668 13.137 148.591 16.3137 148.591 21.5337V21.5635C148.591 26.7835 145.683 29.9602 140.94 29.9602ZM140.94 27.2607C143.714 27.2607 145.295 25.1429 145.295 21.5635V21.5337C145.295 17.9394 143.714 15.8365 140.94 15.8365C138.151 15.8365 136.585 17.9394 136.585 21.5337V21.5635C136.585 25.1578 138.151 27.2607 140.94 27.2607ZM150.163 35.0459V13.4502H153.399V16.0005H153.638C154.577 14.2257 156.352 13.1668 158.619 13.1668C162.706 13.1668 165.33 16.433 165.33 21.5337V21.5635C165.33 26.694 162.735 29.9154 158.619 29.9154C156.397 29.9154 154.503 28.8267 153.638 27.0817H153.399V35.0459H150.163ZM157.709 27.1563C160.409 27.1563 162.034 25.0385 162.034 21.5635V21.5337C162.034 18.0438 160.409 15.9409 157.709 15.9409C155.01 15.9409 153.339 18.0736 153.339 21.5337V21.5635C153.339 25.0236 155.01 27.1563 157.709 27.1563ZM173.733 29.9602C168.99 29.9602 166.127 26.7238 166.127 21.5933V21.5784C166.127 16.5225 169.05 13.137 173.569 13.137C178.088 13.137 180.862 16.4032 180.862 21.2652V22.3987H169.378C169.438 25.5008 171.138 27.3055 173.808 27.3055C175.881 27.3055 177.119 26.2764 177.506 25.4412L177.566 25.3219L180.683 25.307L180.653 25.4412C180.116 27.5739 177.879 29.9602 173.733 29.9602ZM173.584 15.7917C171.377 15.7917 169.706 17.2981 169.423 20.087H177.655C177.402 17.1937 175.776 15.7917 173.584 15.7917ZM182.419 29.647V13.4502H185.655V15.8961H185.894C186.476 14.181 187.982 13.1668 190.145 13.1668C190.667 13.1668 191.233 13.2414 191.561 13.316V16.2988C190.98 16.1795 190.428 16.1049 189.816 16.1049C187.341 16.1049 185.655 17.6262 185.655 19.9677V29.647H182.419Z" fill="url(#paint2_linear_4082_877)"/>
<defs>
<linearGradient id="paint0_linear_4082_877" x1="42.5291" y1="8.97908" x2="55.8292" y2="22.8677" gradientUnits="userSpaceOnUse">
<stop stop-color="white"/>
<stop offset="0.537398" stop-color="white" stop-opacity="0.65"/>
</linearGradient>
<linearGradient id="paint1_linear_4082_877" x1="15.6886" y1="-8.54754" x2="49.3472" y2="44.5973" gradientUnits="userSpaceOnUse">
<stop offset="0.430428" stop-color="white"/>
<stop offset="0.801913" stop-color="white" stop-opacity="0.65"/>
</linearGradient>
<linearGradient id="paint2_linear_4082_877" x1="61" y1="18.647" x2="193" y2="18.647" gradientUnits="userSpaceOnUse">
<stop stop-color="white"/>
<stop offset="1" stop-color="white" stop-opacity="0.65"/>
</linearGradient>
<clipPath id="clip0_4082_877">
<rect width="61.3341" height="29.1001" fill="white" transform="translate(0 0.899902)"/>
</clipPath>
</defs>
</svg>
