<svg width="194" height="36" viewBox="0 0 194 36" fill="none" xmlns="http://www.w3.org/2000/svg">
<g clip-path="url(#clip0_4082_886)">
<path d="M48.7056 0.898438C49.3646 5.82558 53.9248 9.81892 58.8955 9.82241C53.9257 9.8259 50.4283 13.8192 51.0806 18.7464C50.4216 13.8192 45.8614 9.8259 40.8906 9.82241C45.8605 9.81892 49.3579 5.82558 48.7056 0.898438Z" fill="url(#paint0_linear_4082_886)"/>
<path d="M6.84318 29.8885C3.72305 29.8885 1.41687 27.9893 1.41687 25.0199V24.9897C1.41687 22.0656 3.61754 20.3623 7.52147 20.1211L11.953 19.8649V18.4179C11.953 16.6242 10.8225 15.6294 8.60673 15.6294C6.79796 15.6294 5.60719 16.2926 5.21529 17.4532L5.20022 17.5135H2.04994L2.06501 17.408C2.45691 14.725 5.03441 12.9313 8.75746 12.9313C12.8724 12.9313 15.1937 14.9812 15.1937 18.4179V29.6172H11.953V27.2959H11.6967C10.732 28.954 9.01371 29.8885 6.84318 29.8885ZM4.67266 24.8842C4.67266 26.3915 5.95387 27.2809 7.71742 27.2809C10.1593 27.2809 11.953 25.6831 11.953 23.5729V22.1711L7.95859 22.4273C5.69763 22.563 4.67266 23.3769 4.67266 24.8541V24.8842ZM24.5336 29.9337C19.7554 29.9337 16.8312 26.6779 16.8312 21.3873V21.3571C16.8312 16.172 19.7403 12.9313 24.5185 12.9313C28.6334 12.9313 31.0904 15.2525 31.5425 18.433V18.5083L28.4073 18.5234L28.3923 18.4782C28.0305 16.8654 26.7041 15.6595 24.5336 15.6595C21.8053 15.6595 20.1624 17.83 20.1624 21.3571V21.3873C20.1624 25.0048 21.8355 27.2055 24.5336 27.2055C26.5835 27.2055 27.8496 26.271 28.3772 24.5074L28.4073 24.432H31.5425L31.5124 24.5677C30.9246 27.7481 28.5882 29.9337 24.5336 29.9337ZM39.963 29.9337C35.1697 29.9337 32.2757 26.6629 32.2757 21.4777V21.4626C32.2757 16.3529 35.23 12.9313 39.7972 12.9313C44.3643 12.9313 47.1679 16.2323 47.1679 21.1461V22.2917H35.5616C35.6219 25.4269 37.3403 27.2507 40.0383 27.2507C42.1335 27.2507 43.3846 26.2107 43.7765 25.3666L43.8368 25.246L46.987 25.2309L46.9569 25.3666C46.4143 27.522 44.1533 29.9337 39.963 29.9337ZM39.8122 15.6143C37.5814 15.6143 35.8932 17.1367 35.6069 19.9553H43.9272C43.671 17.0312 42.028 15.6143 39.8122 15.6143Z" fill="url(#paint1_linear_4082_886)"/>
</g>
<path d="M63.6995 29.6484V8.12732H71.4697C77.853 8.12732 81.5964 12.0647 81.5964 18.8208V18.8506C81.5964 25.6813 77.8828 29.6484 71.4697 29.6484H63.6995ZM67.0402 26.77H71.0969C75.601 26.77 78.196 23.8916 78.196 18.8953V18.8655C78.196 13.914 75.5562 11.0058 71.0969 11.0058H67.0402V26.77ZM90.2675 29.9616C85.5248 29.9616 82.6613 26.7253 82.6613 21.5948V21.5799C82.6613 16.524 85.5845 13.1385 90.1035 13.1385C94.6225 13.1385 97.3965 16.4047 97.3965 21.2667V22.4002H85.9126C85.9722 25.5023 87.6725 27.3069 90.3421 27.3069C92.4152 27.3069 93.653 26.2778 94.0408 25.4426L94.1005 25.3233L97.2175 25.3084L97.1877 25.4426C96.6508 27.5754 94.4137 29.9616 90.2675 29.9616ZM90.1184 15.7932C87.9111 15.7932 86.2407 17.2995 85.9573 20.0885H94.1899C93.9364 17.1951 92.3108 15.7932 90.1184 15.7932ZM103.055 29.6484L97.1937 13.4517H100.624L104.666 26.3673H104.919L108.946 13.4517H112.346L106.5 29.6484H103.055ZM119.481 29.9616C114.739 29.9616 111.875 26.7253 111.875 21.5948V21.5799C111.875 16.524 114.798 13.1385 119.317 13.1385C123.836 13.1385 126.61 16.4047 126.61 21.2667V22.4002H115.126C115.186 25.5023 116.886 27.3069 119.556 27.3069C121.629 27.3069 122.867 26.2778 123.255 25.4426L123.314 25.3233L126.431 25.3084L126.402 25.4426C125.865 27.5754 123.627 29.9616 119.481 29.9616ZM119.332 15.7932C117.125 15.7932 115.455 17.2995 115.171 20.0885H123.404C123.15 17.1951 121.525 15.7932 119.332 15.7932ZM128.316 29.6484V7.09825H131.553V29.6484H128.316ZM140.94 29.9616C136.182 29.9616 133.274 26.7849 133.274 21.565V21.5351C133.274 16.3301 136.197 13.1385 140.94 13.1385C145.668 13.1385 148.591 16.3152 148.591 21.5351V21.565C148.591 26.7849 145.683 29.9616 140.94 29.9616ZM140.94 27.2622C143.714 27.2622 145.295 25.1444 145.295 21.565V21.5351C145.295 17.9408 143.714 15.8379 140.94 15.8379C138.151 15.8379 136.585 17.9408 136.585 21.5351V21.565C136.585 25.1593 138.151 27.2622 140.94 27.2622ZM150.163 35.0474V13.4517H153.399V16.002H153.638C154.577 14.2272 156.352 13.1683 158.619 13.1683C162.706 13.1683 165.33 16.4345 165.33 21.5351V21.565C165.33 26.6954 162.735 29.9169 158.619 29.9169C156.397 29.9169 154.503 28.8282 153.638 27.0832H153.399V35.0474H150.163ZM157.709 27.1578C160.409 27.1578 162.034 25.04 162.034 21.565V21.5351C162.034 18.0452 160.409 15.9423 157.709 15.9423C155.01 15.9423 153.339 18.0751 153.339 21.5351V21.565C153.339 25.0251 155.01 27.1578 157.709 27.1578ZM173.733 29.9616C168.99 29.9616 166.127 26.7253 166.127 21.5948V21.5799C166.127 16.524 169.05 13.1385 173.569 13.1385C178.088 13.1385 180.862 16.4047 180.862 21.2667V22.4002H169.378C169.438 25.5023 171.138 27.3069 173.808 27.3069C175.881 27.3069 177.119 26.2778 177.506 25.4426L177.566 25.3233L180.683 25.3084L180.653 25.4426C180.116 27.5754 177.879 29.9616 173.733 29.9616ZM173.584 15.7932C171.377 15.7932 169.706 17.2995 169.423 20.0885H177.655C177.402 17.1951 175.776 15.7932 173.584 15.7932ZM182.419 29.6484V13.4517H185.655V15.8976H185.894C186.476 14.1825 187.982 13.1683 190.145 13.1683C190.667 13.1683 191.233 13.2429 191.561 13.3174V16.3003C190.98 16.181 190.428 16.1064 189.816 16.1064C187.341 16.1064 185.655 17.6276 185.655 19.9692V29.6484H182.419Z" fill="url(#paint2_linear_4082_886)"/>
<defs>
<linearGradient id="paint0_linear_4082_886" x1="42.5305" y1="8.97761" x2="55.8306" y2="22.8662" gradientUnits="userSpaceOnUse">
<stop/>
<stop offset="0.537398"/>
</linearGradient>
<linearGradient id="paint1_linear_4082_886" x1="15.6886" y1="-8.54608" x2="49.3472" y2="44.5988" gradientUnits="userSpaceOnUse">
<stop offset="0.430428"/>
<stop offset="0.801913"/>
</linearGradient>
<linearGradient id="paint2_linear_4082_886" x1="61" y1="18.6484" x2="193" y2="18.6484" gradientUnits="userSpaceOnUse">
<stop/>
<stop offset="1"/>
</linearGradient>
<clipPath id="clip0_4082_886">
<rect width="61.3341" height="29.1001" fill="white" transform="translate(0 0.898438)"/>
</clipPath>
</defs>
</svg>
