<svg width="194" height="35" viewBox="0 0 194 35" fill="none" xmlns="http://www.w3.org/2000/svg">
<g clip-path="url(#clip0_4082_869)">
<path d="M47.645 0.899902C48.2896 5.71987 52.7507 9.62636 57.6133 9.62977C52.7515 9.63319 49.3302 13.5397 49.9683 18.3596C49.3237 13.5397 44.8626 9.63319 40 9.62977C44.8618 9.62636 48.2831 5.71987 47.645 0.899902Z" fill="url(#paint0_linear_4082_869)"/>
<path d="M6.69434 28.7351C3.64207 28.7351 1.38605 26.8772 1.38605 23.9724V23.9429C1.38605 21.0824 3.53886 19.4161 7.35787 19.1802L11.693 18.9296V17.514C11.693 15.7593 10.5871 14.7861 8.41953 14.7861C6.6501 14.7861 5.48523 15.4349 5.10185 16.5703L5.08711 16.6293H2.00535L2.0201 16.5261C2.40347 13.9014 4.92491 12.1467 8.56698 12.1467C12.5924 12.1467 14.8632 14.1521 14.8632 17.514V28.4697H11.693V26.199H11.4423C10.4986 27.8209 8.81765 28.7351 6.69434 28.7351ZM4.57102 23.8397C4.57102 25.3142 5.82437 26.1842 7.54956 26.1842C9.93829 26.1842 11.693 24.6212 11.693 22.5569V21.1856L7.78549 21.4362C5.5737 21.569 4.57102 22.3652 4.57102 23.8102V23.8397ZM23.9999 28.7794C19.3257 28.7794 16.4651 25.5944 16.4651 20.4188V20.3893C16.4651 15.317 19.311 12.1467 23.9852 12.1467C28.0106 12.1467 30.4141 14.4175 30.8565 17.5288V17.6025L27.7895 17.6172L27.7747 17.573C27.4208 15.9953 26.1233 14.8156 23.9999 14.8156C21.3311 14.8156 19.7238 16.9389 19.7238 20.3893V20.4188C19.7238 23.9577 21.3605 26.1105 23.9999 26.1105C26.0053 26.1105 27.2439 25.1963 27.76 23.4711L27.7895 23.3974H30.8565L30.827 23.5301C30.2519 26.6413 27.9664 28.7794 23.9999 28.7794ZM39.0938 28.7794C34.4048 28.7794 31.5737 25.5797 31.5737 20.5073V20.4926C31.5737 15.4939 34.4638 12.1467 38.9316 12.1467C43.3994 12.1467 46.142 15.376 46.142 20.1829V21.3035H34.7882C34.8471 24.3705 36.5281 26.1547 39.1675 26.1547C41.2171 26.1547 42.4409 25.1373 42.8243 24.3116L42.8833 24.1936L45.965 24.1789L45.9356 24.3116C45.4047 26.4201 43.1929 28.7794 39.0938 28.7794ZM38.9463 14.7714C36.764 14.7714 35.1125 16.2607 34.8324 19.018H42.9718C42.7211 16.1575 41.1139 14.7714 38.9463 14.7714Z" fill="url(#paint1_linear_4082_869)"/>
</g>
<path d="M62.6995 28.647V7.12586H70.4697C76.853 7.12586 80.5964 11.0632 80.5964 17.8193V17.8491C80.5964 24.6798 76.8828 28.647 70.4697 28.647H62.6995ZM66.0402 25.7685H70.0969C74.601 25.7685 77.196 22.8901 77.196 17.8939V17.864C77.196 12.9125 74.5562 10.0043 70.0969 10.0043H66.0402V25.7685ZM89.2675 28.9602C84.5248 28.9602 81.6613 25.7238 81.6613 20.5933V20.5784C81.6613 15.5225 84.5845 12.137 89.1035 12.137C93.6225 12.137 96.3965 15.4032 96.3965 20.2652V21.3987H84.9126C84.9722 24.5008 86.6725 26.3055 89.3421 26.3055C91.4152 26.3055 92.653 25.2764 93.0408 24.4412L93.1005 24.3219L96.2175 24.307L96.1877 24.4412C95.6508 26.5739 93.4137 28.9602 89.2675 28.9602ZM89.1184 14.7917C86.9111 14.7917 85.2407 16.2981 84.9573 19.087H93.1899C92.9364 16.1937 91.3108 14.7917 89.1184 14.7917ZM102.055 28.647L96.1937 12.4502H99.6239L103.666 25.3659H103.919L107.946 12.4502H111.346L105.5 28.647H102.055ZM118.481 28.9602C113.739 28.9602 110.875 25.7238 110.875 20.5933V20.5784C110.875 15.5225 113.798 12.137 118.317 12.137C122.836 12.137 125.61 15.4032 125.61 20.2652V21.3987H114.126C114.186 24.5008 115.886 26.3055 118.556 26.3055C120.629 26.3055 121.867 25.2764 122.255 24.4412L122.314 24.3219L125.431 24.307L125.402 24.4412C124.865 26.5739 122.627 28.9602 118.481 28.9602ZM118.332 14.7917C116.125 14.7917 114.455 16.2981 114.171 19.087H122.404C122.15 16.1937 120.525 14.7917 118.332 14.7917ZM127.316 28.647V6.09678H130.553V28.647H127.316ZM139.94 28.9602C135.182 28.9602 132.274 25.7835 132.274 20.5635V20.5337C132.274 15.3286 135.197 12.137 139.94 12.137C144.668 12.137 147.591 15.3137 147.591 20.5337V20.5635C147.591 25.7835 144.683 28.9602 139.94 28.9602ZM139.94 26.2607C142.714 26.2607 144.295 24.1429 144.295 20.5635V20.5337C144.295 16.9394 142.714 14.8365 139.94 14.8365C137.151 14.8365 135.585 16.9394 135.585 20.5337V20.5635C135.585 24.1578 137.151 26.2607 139.94 26.2607ZM149.163 34.0459V12.4502H152.399V15.0005H152.638C153.577 13.2257 155.352 12.1668 157.619 12.1668C161.706 12.1668 164.33 15.433 164.33 20.5337V20.5635C164.33 25.694 161.735 28.9154 157.619 28.9154C155.397 28.9154 153.503 27.8267 152.638 26.0817H152.399V34.0459H149.163ZM156.709 26.1563C159.409 26.1563 161.034 24.0385 161.034 20.5635V20.5337C161.034 17.0438 159.409 14.9409 156.709 14.9409C154.01 14.9409 152.339 17.0736 152.339 20.5337V20.5635C152.339 24.0236 154.01 26.1563 156.709 26.1563ZM172.733 28.9602C167.99 28.9602 165.127 25.7238 165.127 20.5933V20.5784C165.127 15.5225 168.05 12.137 172.569 12.137C177.088 12.137 179.862 15.4032 179.862 20.2652V21.3987H168.378C168.438 24.5008 170.138 26.3055 172.808 26.3055C174.881 26.3055 176.119 25.2764 176.506 24.4412L176.566 24.3219L179.683 24.307L179.653 24.4412C179.116 26.5739 176.879 28.9602 172.733 28.9602ZM172.584 14.7917C170.377 14.7917 168.706 16.2981 168.423 19.087H176.655C176.402 16.1937 174.776 14.7917 172.584 14.7917ZM181.419 28.647V12.4502H184.655V14.8961H184.894C185.476 13.181 186.982 12.1668 189.145 12.1668C189.667 12.1668 190.233 12.2414 190.561 12.316V15.2988C189.98 15.1795 189.428 15.1049 188.816 15.1049C186.341 15.1049 184.655 16.6262 184.655 18.9677V28.647H181.419Z" fill="url(#paint2_linear_4082_869)"/>
<defs>
<linearGradient id="paint0_linear_4082_869" x1="41.6042" y1="8.80335" x2="54.615" y2="22.3899" gradientUnits="userSpaceOnUse">
<stop stop-color="white"/>
<stop offset="0.537398" stop-color="white" stop-opacity="0.65"/>
</linearGradient>
<linearGradient id="paint1_linear_4082_869" x1="15.3684" y1="-7.95885" x2="47.1347" y2="43.5142" gradientUnits="userSpaceOnUse">
<stop offset="0.430428" stop-color="white"/>
<stop offset="0.801913" stop-color="white" stop-opacity="0.65"/>
</linearGradient>
<linearGradient id="paint2_linear_4082_869" x1="60" y1="17.647" x2="192" y2="17.647" gradientUnits="userSpaceOnUse">
<stop/>
<stop offset="1" stop-opacity="0.65"/>
</linearGradient>
<clipPath id="clip0_4082_869">
<rect width="60" height="28.4672" fill="white" transform="translate(0 0.899902)"/>
</clipPath>
</defs>
</svg>
